<svg xmlns="http://www.w3.org/2000/svg" viewBox="0 0 436.38 447.31"><defs><style>.cls-1{fill:#fff;}</style></defs><g id="Capa_2" data-name="Capa 2"><g id="Layer_1" data-name="Layer 1"><path class="cls-1" d="M424.34,297.84c17.39-57,16.48-123.11-6.21-177.89C386.1,42.63,318.59,0,228.06,0,164.17,0,115.5,18.63,83.57,55.43c-48.65,56-42,134.52-40.43,147.89L2,303.32A24.34,24.34,0,0,0,.17,315.74a23.57,23.57,0,0,0,17.91,19.95l34.2,8.14,19.09,57.94A33,33,0,0,0,111,423.27l81.77-21.64v38.48c0,3.42,2.33,6.66,5.72,7.13a6.69,6.69,0,0,0,7.58-5.66,7.75,7.75,0,0,0,.07-1V392.88a6.75,6.75,0,0,0-2.61-5.3,6.58,6.58,0,0,0-5.79-1.16l-90.19,23.92A19.5,19.5,0,0,1,84,397.63L63.78,336.14A6.71,6.71,0,0,0,59,331.72l-37.83-9a10.17,10.17,0,0,1-7.54-12.26,10.06,10.06,0,0,1,.48-1.5l41.39-100.5c6.42-4.8,38.8-27.07,80.46-22.84C169,189,200,208,227.84,242.31a226.69,226.69,0,0,0,22.7,24.09,6.76,6.76,0,0,0,.62.57c40,36.36,81.75,45.66,113.82,45.66a166,166,0,0,0,42.19-5.4c-10.07,27.21-24.68,51.65-43.53,70.52a6.67,6.67,0,0,0-2,4.76v57.55c0,3.42,2.33,6.66,5.73,7.13a6.69,6.69,0,0,0,7.58-5.66,7.75,7.75,0,0,0,.07-1V385.25c21.9-22.64,38.26-52.4,48.59-85.24A6.4,6.4,0,0,0,424.34,297.84ZM274,268.63h68.39a27,27,0,1,0,0-13.38H258.11a216.75,216.75,0,0,1-19.94-21.38,215.5,215.5,0,0,0-26.68-27.52H333.17a27,27,0,1,0,0-13.38h-17V159.35a27,27,0,1,0-13.37,0V193h-109c-16.05-10.43-32.87-17-50.34-19.68V146.91h44.09a27,27,0,1,0,0-13.37H143.42V74.2h70.84a27,27,0,1,0,0-13.38H136.73A6.67,6.67,0,0,0,130,67.49V171.88c-33.66-1.33-60.56,11.75-74.3,20.27-1.21-24.48.22-84.59,38-128C123,30.45,168.17,13.38,228.06,13.38c84.77,0,147.88,39.66,177.71,111.69,21.3,51.4,22.39,113.22,6.53,166.75C398.25,297,336.42,315.48,274,268.63Zm80.83-6.69a13.65,13.65,0,1,1,13.65,13.69,13.65,13.65,0,0,1-13.65-13.69h0Zm-45.31-115a13.64,13.64,0,1,1,13.69-13.67,13.64,13.64,0,0,1-13.69,13.67h0Zm36.11,52.69a13.65,13.65,0,1,1,13.66,13.64h0A13.66,13.66,0,0,1,345.59,199.63ZM200,140.23a13.65,13.65,0,1,1,13.65,13.65h0A13.65,13.65,0,0,1,200,140.23ZM226.7,67.51a13.65,13.65,0,1,1,13.66,13.64h0A13.66,13.66,0,0,1,226.7,67.51Z"/></g></g></svg>