<svg xmlns="http://www.w3.org/2000/svg" viewBox="0 0 258.3 163.72"><defs><style>.cls-1{fill:#fff;}</style></defs><g id="Capa_2" data-name="Capa 2"><g id="Capa_1-2" data-name="Capa 1"><path class="cls-1" d="M2.12,87.13A2.11,2.11,0,0,1,.49,83.66C1,83.09,48.11,27.24,119.14,22.41c46.9-3.18,93.49,16.12,138.47,57.38a2.12,2.12,0,0,1-2.86,3.12c-44.08-40.43-89.59-59.36-135.28-56.28C50.27,31.31,4.2,85.81,3.75,86.36A2.11,2.11,0,0,1,2.12,87.13Z"/><path class="cls-1" d="M128,140.23a164.73,164.73,0,0,1-49.87-7.86C31.44,117.58.91,86.8.61,86.49a2.11,2.11,0,1,1,3-3c.3.3,30.2,30.41,75.93,44.86,61.16,19.32,120.1,3,175.18-48.59a2.12,2.12,0,0,1,2.89,3.09C210.75,126.79,165.64,140.23,128,140.23Z"/><path class="cls-1" d="M128.34,138.43a57.09,57.09,0,1,1,57.08-57.08A57.15,57.15,0,0,1,128.34,138.43Zm0-109.93a52.85,52.85,0,1,0,52.85,52.85A52.91,52.91,0,0,0,128.34,28.5Z"/><path class="cls-1" d="M87.1,83.46A2.11,2.11,0,0,1,85,81.34,43.4,43.4,0,0,1,128.34,38a2.12,2.12,0,0,1,0,4.24A39.16,39.16,0,0,0,89.22,81.34,2.12,2.12,0,0,1,87.1,83.46Z"/><path class="cls-1" d="M54.72,35.18a2.11,2.11,0,0,1-2.11-2.12V0H86.07a2.12,2.12,0,1,1,0,4.23H56.84V33.06A2.12,2.12,0,0,1,54.72,35.18Z"/><path class="cls-1" d="M202,35.18a2.12,2.12,0,0,1-2.12-2.12V4.23H170.6a2.12,2.12,0,1,1,0-4.23h33.47V33.06A2.12,2.12,0,0,1,202,35.18Z"/><path class="cls-1" d="M85.58,163.72H52.12V130.66a2.12,2.12,0,1,1,4.23,0v28.83H85.58a2.12,2.12,0,1,1,0,4.23Z"/><path class="cls-1" d="M203.58,163.72H170.11a2.12,2.12,0,1,1,0-4.23h29.23V130.66a2.12,2.12,0,0,1,4.24,0Z"/><circle class="cls-1" cx="128.34" cy="81.35" r="10.99"/></g></g></svg>